<svg width="652" height="620" viewBox="0 0 652 620" fill="none" xmlns="http://www.w3.org/2000/svg">
<path d="M309.922 177.624L357.593 320.94L410.473 318.908L424.475 318.37L315.81 20.9283L208.251 261.488L270.948 260.519L300.463 177.555L305.339 163.849L309.922 177.624ZM523.498 589.422L424.964 319.71L413.572 327.949L369.837 359.58L412.347 500.381L414.901 508.838L406.326 506.688L344.524 491.189L523.498 589.422Z" fill="white" stroke="#9800FF" stroke-width="10"/>
<path d="M197.018 457.195L184.114 405.633L121.186 609.971L590.334 263.951L3.15002 278.483L87.5992 335.295L409.273 327.334L413.026 327.241L409.836 329.183L198.52 457.814L197.351 458.525L197.018 457.195Z" fill="#9800FF" stroke="#9800FF" stroke-width="2"/>
</svg>
