<svg width="400" height="133" viewBox="0 0 400 133" fill="none" xmlns="http://www.w3.org/2000/svg">
<path d="M125.792 125.707C125.927 125.572 126.019 125.399 126.057 125.208L141.892 45.5393C141.959 45.2035 141.85 44.8509 141.604 44.6049L137.98 40.9809C137.689 40.6899 137.259 40.6 136.891 40.7533L131.744 42.8982C131.583 42.9649 131.445 43.0739 131.342 43.2141L126.126 50.3276C126.042 50.4412 125.985 50.5724 125.956 50.7123L117.034 94.8272C117.011 94.9415 117.008 95.0598 117.025 95.1765L119.499 112L123.063 126.255C123.254 127.021 124.192 127.307 124.734 126.765L125.792 125.707Z" fill="#D9D9D9"/>
<path d="M354.312 118.219C354.755 118.219 355.13 117.91 355.217 117.472L370.961 38.2586C371.028 37.9229 370.919 37.5703 370.673 37.3243L367.049 33.7002C366.758 33.4093 366.328 33.3194 365.961 33.4726L360.813 35.6176C360.653 35.6843 360.514 35.7932 360.412 35.9334L355.195 43.047C355.112 43.1606 355.054 43.2918 355.026 43.4317L346.111 87.5087C346.083 87.6476 346.085 87.7919 346.116 87.932L350.069 105.719L353.364 117.488C353.484 117.918 353.875 118.219 354.312 118.219Z" fill="black"/>
<path d="M173.291 121.771L184.572 44.2367C184.662 43.6194 184.176 43.052 183.558 43.052L181.245 43.052L176.245 43.052L171.05 43.052C170.581 43.052 170.186 43.3855 170.104 43.8513L160.793 96.7802C160.761 96.9581 160.778 97.1427 160.842 97.3146L165.745 110.552L170.717 126.01C171.042 127.023 172.478 126.952 172.641 125.915L173.291 121.771Z" fill="black"/>
<path d="M197.764 118.882L203.764 83.3819L207 70.5L208.66 61.9185C208.725 61.5841 208.616 61.2339 208.371 60.9891L203.764 56.3819L201.559 53.8819L198.991 51.2109C198.447 50.6452 197.522 50.8718 197.329 51.6178L182.67 108.451C182.599 108.725 182.648 109.021 182.803 109.264L190.512 121.309C190.543 121.357 190.57 121.408 190.593 121.461L193.812 128.972C194.201 129.88 195.495 129.785 195.693 128.834L197.764 118.882Z" fill="black"/>
<path d="M184.222 34.2329C184.679 34.2329 185.067 33.9168 185.162 33.4671L186 29.5L186.84 24.9496C186.892 24.6641 186.819 24.3654 186.639 24.1313L185 22L182.5 19L179.423 15.5262L176.724 12.8276C176.531 12.6348 176.272 12.5262 176.006 12.5262L174.776 12.5262C174.285 12.5262 173.88 12.89 173.822 13.3822L172.923 21.0262L171.237 33.0535C171.151 33.6692 171.636 34.2329 172.253 34.2329L183.676 34.2329L184.222 34.2329Z" fill="black"/>
<path d="M170.199 54.6934C170.569 54.3457 170.608 53.76 170.288 53.3427L163.408 44.3705C163.372 44.3228 163.339 44.2721 163.312 44.2189L160.954 39.7241C160.648 39.141 159.893 38.9844 159.415 39.4049L153.853 44.2988L146.599 50.3742C146.439 50.5076 146.327 50.6901 146.279 50.8955L144.745 57.4145C144.57 58.1585 145.258 58.8436 145.988 58.653L154.242 56.4999C154.967 56.3107 155.652 56.9853 155.487 57.7263L154.877 60.4719C154.861 60.5434 154.853 60.6167 154.853 60.6905L154.853 64.0795L154.853 66.7228C154.853 67.6088 155.902 68.0964 156.534 67.5042L170.199 54.6934Z" fill="black"/>
<path fill-rule="evenodd" clip-rule="evenodd" d="M38.0625 35L37.2451 19.2358L34.0172 35H38.0625ZM38.3736 41H32.7887L15.7451 124.236L132.745 42.2358H99.2451L40.7451 86.7358L38.3736 41Z" fill="black"/>
<path d="M250.021 53.3014C250.301 52.7925 250.789 52.4304 251.357 52.3092L318.462 38L267.061 63.9453C266.387 64.2855 265.962 64.976 265.962 65.7308L265.962 84.5L245.974 63.5603C245.371 62.9291 245.248 61.9801 245.668 61.2155L250.021 53.3014Z" fill="black"/>
<path d="M198.207 94L235.915 63.6878C236.152 63.498 236.289 63.2113 236.289 62.9084L236.289 57.3876L245.458 67.9315C245.882 68.4192 245.739 69.1749 245.166 69.4741L198.207 94Z" fill="black"/>
<path d="M293.709 56L328.209 40L325.386 48.9404C325.277 49.2859 324.989 49.5454 324.634 49.6186L293.709 56Z" fill="black"/>
<path d="M0.000143394 35.4797L115.874 15.5965C116.572 15.4767 117.281 15.7349 117.739 16.2752L131.212 32.1873C132.313 33.487 131.389 35.4797 129.686 35.4797L0.000143394 35.4797Z" fill="#9800FF"/>
<path d="M125.244 125.5C125.687 125.5 126.062 125.19 126.149 124.753L141.893 45.5393C141.96 45.2035 141.851 44.8509 141.605 44.6049L137.981 40.9808C137.69 40.6899 137.26 40.6 136.892 40.7533L131.744 42.8982C131.584 42.9649 131.446 43.0738 131.343 43.214L126.127 50.3276C126.043 50.4412 125.985 50.5724 125.957 50.7123L117.043 94.7893C117.015 94.9282 117.016 95.0725 117.047 95.2126L121 113L124.295 124.769C124.416 125.199 124.806 125.5 125.244 125.5Z" fill="#9800FF"/>
<path d="M396.198 46.6934C396.569 46.3457 396.607 45.76 396.287 45.3427L389.407 36.3705C389.371 36.3228 389.338 36.2721 389.311 36.2189L386.953 31.7241C386.647 31.141 385.892 30.9844 385.414 31.4049L379.852 36.2988L372.598 42.3743C372.438 42.5076 372.326 42.6901 372.278 42.8956L370.744 49.4145C370.569 50.1585 371.257 50.8436 371.987 50.653L380.241 48.4999C380.966 48.3107 381.651 48.9853 381.486 49.7264L380.876 52.4719C380.86 52.5434 380.852 52.6167 380.852 52.6906L380.852 56.0795L380.852 58.7229C380.852 59.6088 381.901 60.0965 382.533 59.5043L396.198 46.6934Z" fill="#9800FF"/>
<path d="M270.727 67.6505L293.905 84.5513C294.421 84.9278 294.727 85.5284 294.727 86.1674L294.727 103.679C294.727 104.554 294.157 105.328 293.321 105.588L233.727 124.15L273.216 95.7373C274.067 95.1248 274.301 93.9588 273.751 93.0657L270.727 88.1505L270.727 67.6505Z" fill="#9800FF"/>
<path d="M366.897 38.8598C366.591 39.2708 366.138 39.5484 365.633 39.6353L334.42 45L337.42 36L384.602 11.9461C385.545 11.4656 386.491 12.5867 385.858 13.4349L366.897 38.8598Z" fill="#9800FF"/>
<path d="M345.985 24.3498L329.985 124.85L316.984 87.8498L332.985 10.8498L345.985 24.3498Z" fill="#9800FF"/>
<path d="M345.949 18.9601L338.984 12.7092L335.399 8.70918L334.399 5.20919L334.399 3.20919L335.399 1.08548L337.399 1.08548L340.899 4.20919L344.399 8.20919L345.886 9.30175L347.399 11.7092L347.399 18.7092L345.949 18.9601Z" fill="#9800FF"/>
<path d="M243.757 67.402C243.572 67.3489 243.403 67.2439 243.272 67.0994L233.783 56.6349C233.586 56.4179 233.308 56.2934 233.021 56.2934L220.973 56.2934L213.831 56.2934C213.6 56.2934 213.373 56.2125 213.189 56.0644L206.036 50.3007C205.994 50.2667 205.955 50.2294 205.918 50.1892L201.309 45.1195C201.135 44.9276 201.038 44.6785 201.038 44.4232L201.038 42.7883C201.038 42.2486 201.464 41.8207 202.001 41.8207L247.531 41.8207C248.095 41.8207 248.563 42.2908 248.563 42.8575L248.563 54.8207L247.106 67.1946C247.035 67.7919 246.456 68.1731 245.873 68.0064L243.757 67.402Z" fill="#9800FF"/>
</svg>
