<svg width="188" height="202" viewBox="0 0 188 202" fill="none" xmlns="http://www.w3.org/2000/svg">
<path d="M63.6311 51.5149C63.0775 51.5067 62.6207 51.9498 62.612 52.5033L61.4355 127.831C61.4214 128.735 62.5185 129.187 63.1505 128.538L79.0866 112.176C79.2654 111.992 79.3674 111.748 79.3715 111.492L79.9289 77.2851L79.6822 68.3143L80.2878 52.7822C80.3096 52.2226 79.8676 51.7561 79.3076 51.7477L63.6311 51.5149Z" fill="black"/>
<path d="M63.6311 51.5149C63.0775 51.5067 62.6207 51.9498 62.612 52.5033L61.4355 127.831C61.4214 128.735 62.5185 129.187 63.1505 128.538L79.0866 112.176C79.2654 111.992 79.3674 111.748 79.3715 111.492L79.9289 77.2851L79.6822 68.3143L80.2878 52.7822C80.3096 52.2226 79.8676 51.7561 79.3076 51.7477L63.6311 51.5149Z" fill="black"/>
<path d="M62.847 52.1404C63.3987 52.1483 63.8402 52.6016 63.8336 53.1534L62.9308 127.784C62.9189 128.766 61.6479 129.143 61.1007 128.328L50.3807 112.357C50.2677 112.189 50.2085 111.99 50.2109 111.787L50.6088 77.4919L50.9997 68.5307L50.9226 52.9874C50.9198 52.428 51.3765 51.9755 51.9359 51.9836L62.847 52.1404Z" fill="#FF2D07"/>
<path d="M62.847 52.1404C63.3987 52.1483 63.8402 52.6016 63.8336 53.1534L62.9308 127.784C62.9189 128.766 61.6479 129.143 61.1007 128.328L50.3807 112.357C50.2677 112.189 50.2085 111.99 50.2109 111.787L50.6088 77.4919L50.9997 68.5307L50.9226 52.9874C50.9198 52.428 51.3765 51.9755 51.9359 51.9836L62.847 52.1404Z" fill="#FF2D07"/>
<path d="M75.8141 189.462C76.2312 189.342 76.5239 188.967 76.5387 188.534L78.0453 144.392C78.0727 143.589 77.1896 143.084 76.5108 143.515L60.458 153.699C60.1671 153.883 59.9915 154.205 59.9932 154.549L60.0218 160.495L60.0941 175.495L59.9979 192.666C59.9942 193.333 60.6316 193.816 61.2727 193.632L75.8141 189.462Z" fill="#FF2D07"/>
<path d="M75.8141 189.462C76.2312 189.342 76.5239 188.967 76.5387 188.534L78.0453 144.392C78.0727 143.589 77.1896 143.084 76.5108 143.515L60.458 153.699C60.1671 153.883 59.9915 154.205 59.9932 154.549L60.0218 160.495L60.0941 175.495L59.9979 192.666C59.9942 193.333 60.6316 193.816 61.2727 193.632L75.8141 189.462Z" fill="#FF2D07"/>
<path d="M128.385 141.24C127.966 140.812 127.267 140.845 126.891 141.311L117.395 153.069L108.045 163.813L85.5689 189.192C84.86 189.993 85.7339 191.197 86.7156 190.772L96.8827 186.373C97.0155 186.316 97.1343 186.23 97.2308 186.123L118.774 162.072L124.211 156.014L132.537 146.825C132.892 146.433 132.881 145.833 132.511 145.456L128.385 141.24Z" fill="#FF2D07"/>
<path d="M128.385 141.24C127.966 140.812 127.267 140.845 126.891 141.311L117.395 153.069L108.045 163.813L85.5689 189.192C84.86 189.993 85.7339 191.197 86.7156 190.772L96.8827 186.373C97.0155 186.316 97.1343 186.23 97.2308 186.123L118.774 162.072L124.211 156.014L132.537 146.825C132.892 146.433 132.881 145.833 132.511 145.456L128.385 141.24Z" fill="#FF2D07"/>
<path d="M147.72 126.942C147.319 126.455 146.571 126.457 146.172 126.946L121.812 156.794L86.4599 189.837C85.7972 190.457 86.2359 191.567 87.1434 191.567L98.9848 191.567C99.2403 191.567 99.486 191.469 99.6718 191.294L117.261 174.703L129.817 162.839L149.79 143.899C149.878 143.815 149.95 143.716 150.003 143.606L153.941 135.401C154.11 135.051 154.059 134.634 153.812 134.334L147.72 126.942Z" fill="#FF2D07"/>
<path d="M147.72 126.942C147.319 126.455 146.571 126.457 146.172 126.946L121.812 156.794L86.4599 189.837C85.7972 190.457 86.2359 191.567 87.1434 191.567L98.9848 191.567C99.2403 191.567 99.486 191.469 99.6718 191.294L117.261 174.703L129.817 162.839L149.79 143.899C149.878 143.815 149.95 143.716 150.003 143.606L153.941 135.401C154.11 135.051 154.059 134.634 153.812 134.334L147.72 126.942Z" fill="#FF2D07"/>
<path d="M149.995 114.293C149.565 113.949 148.937 114.018 148.592 114.446L118.056 152.261C117.563 152.871 117.933 153.784 118.711 153.88L124.69 154.621C124.989 154.658 125.289 154.558 125.506 154.35L147.202 133.562C147.242 133.523 147.279 133.481 147.313 133.435L150.749 128.806L157.113 121.29C157.477 120.86 157.414 120.215 156.974 119.863L149.995 114.293Z" fill="#FF2D07"/>
<path d="M149.995 114.293C149.565 113.949 148.937 114.018 148.592 114.446L118.056 152.261C117.563 152.871 117.933 153.784 118.711 153.88L124.69 154.621C124.989 154.658 125.289 154.558 125.506 154.35L147.202 133.562C147.242 133.523 147.279 133.481 147.313 133.435L150.749 128.806L157.113 121.29C157.477 120.86 157.414 120.215 156.974 119.863L149.995 114.293Z" fill="#FF2D07"/>
<path d="M149.614 129.877C149.275 130.27 148.692 130.339 148.272 130.035L123.38 112.056C122.948 111.745 122.837 111.149 123.127 110.702L129.235 101.282C129.559 100.782 130.247 100.674 130.708 101.052L155.63 121.463C155.75 121.562 155.781 121.733 155.703 121.868L155.408 122.378C155.248 122.654 155.624 122.921 155.832 122.681L149.614 129.877Z" fill="#FF2D07"/>
<path d="M149.614 129.877C149.275 130.27 148.692 130.339 148.272 130.035L123.38 112.056C122.948 111.745 122.837 111.149 123.127 110.702L129.235 101.282C129.559 100.782 130.247 100.674 130.708 101.052L155.63 121.463C155.75 121.562 155.781 121.733 155.703 121.868L155.408 122.378C155.248 122.654 155.624 122.921 155.832 122.681L149.614 129.877Z" fill="#FF2D07"/>
<path d="M120.533 102.056C120.908 102.433 120.924 103.037 120.569 103.432L48.7101 183.469C48.1063 184.141 46.9916 183.73 46.9675 182.826L46.6958 172.638L47.2972 156.218C47.3057 155.985 47.3953 155.762 47.5505 155.588L82.0605 116.911L91.3924 107.471L107.005 89.976C107.388 89.547 108.052 89.5287 108.458 89.9361L120.533 102.056Z" fill="#FF2D07"/>
<path d="M120.533 102.056C120.908 102.433 120.924 103.037 120.569 103.432L48.7101 183.469C48.1063 184.141 46.9916 183.73 46.9675 182.826L46.6958 172.638L47.2972 156.218C47.3057 155.985 47.3953 155.762 47.5505 155.588L82.0605 116.911L91.3924 107.471L107.005 89.976C107.388 89.547 108.052 89.5287 108.458 89.9361L120.533 102.056Z" fill="#FF2D07"/>
<path d="M59.5307 68.6597C59.2109 69.1082 58.5882 69.2142 58.1381 68.8968L22.2119 43.5718C22.1443 43.5241 22.0828 43.4682 22.0289 43.4054L6.36002 25.1249C5.7079 24.3641 6.45821 23.2246 7.41654 23.5203L26.4062 29.3803C26.5491 29.4243 26.6802 29.4998 26.7899 29.6012L46.2389 47.5606L52.7244 52.4248L64.2429 60.2987C64.7047 60.6144 64.8171 61.2471 64.4923 61.7026L59.5307 68.6597Z" fill="#FF2D07"/>
<path d="M59.5307 68.6597C59.2109 69.1082 58.5882 69.2142 58.1381 68.8968L22.2119 43.5718C22.1443 43.5241 22.0828 43.4682 22.0289 43.4054L6.36002 25.1249C5.7079 24.3641 6.45821 23.2246 7.41654 23.5203L26.4062 29.3803C26.5491 29.4243 26.6802 29.4998 26.7899 29.6012L46.2389 47.5606L52.7244 52.4248L64.2429 60.2987C64.7047 60.6144 64.8171 61.2471 64.4923 61.7026L59.5307 68.6597Z" fill="#FF2D07"/>
<path d="M6.71584 25.1264C6.34455 25.049 6.04867 24.7683 5.95174 24.4017L0.570417 4.04831C0.369772 3.28942 1.0814 2.60714 1.83156 2.83918L24.4191 9.82592C24.8124 9.94759 25.0915 10.2976 25.1222 10.7079L26.4582 28.5084L26.2791 33.3466L26.3999 30.0849C26.4179 29.5973 26.0812 29.1673 25.6032 29.0675L6.71584 25.1264Z" fill="#FF2D07"/>
<path d="M6.71584 25.1264C6.34455 25.049 6.04867 24.7683 5.95174 24.4017L0.570417 4.04831C0.369772 3.28942 1.0814 2.60714 1.83156 2.83918L24.4191 9.82592C24.8124 9.94759 25.0915 10.2976 25.1222 10.7079L26.4582 28.5084L26.2791 33.3466L26.3999 30.0849C26.4179 29.5973 26.0812 29.1673 25.6032 29.0675L6.71584 25.1264Z" fill="#FF2D07"/>
<path d="M133.715 86.4937C134.179 86.8337 134.248 87.4852 133.865 87.9169L61.7152 169.208C61.0697 169.935 59.8481 169.445 59.9349 168.494L61.9065 146.898C61.9252 146.694 62.0092 146.5 62.1468 146.343L121.475 78.7055C121.826 78.3053 122.436 78.2375 122.865 78.5512L133.715 86.4937Z" fill="black"/>
<path d="M133.715 86.4937C134.179 86.8337 134.248 87.4852 133.865 87.9169L61.7152 169.208C61.0697 169.935 59.8481 169.445 59.9349 168.494L61.9065 146.898C61.9252 146.694 62.0092 146.5 62.1468 146.343L121.475 78.7055C121.826 78.3053 122.436 78.2375 122.865 78.5512L133.715 86.4937Z" fill="black"/>
<path d="M175.61 124.446C175.61 125.173 174.857 125.662 174.194 125.365L165.892 121.638C165.703 121.552 165.491 121.529 165.286 121.57L155.8 123.478C155.543 123.53 155.277 123.479 155.058 123.336L147.149 118.174L128.5 104.173C128.05 103.836 127.971 103.193 128.325 102.752L138.24 90.3802C138.572 89.9662 139.168 89.8799 139.599 90.1833L175.189 115.204C175.453 115.39 175.61 115.692 175.61 116.016L175.61 124.446Z" fill="black"/>
<path d="M175.61 124.446C175.61 125.173 174.857 125.662 174.194 125.365L165.892 121.638C165.703 121.552 165.491 121.529 165.286 121.57L155.8 123.478C155.543 123.53 155.277 123.479 155.058 123.336L147.149 118.174L128.5 104.173C128.05 103.836 127.971 103.193 128.325 102.752L138.24 90.3802C138.572 89.9662 139.168 89.8799 139.599 90.1833L175.189 115.204C175.453 115.39 175.61 115.692 175.61 116.016L175.61 124.446Z" fill="black"/>
<path d="M121.61 79.0768C121.943 78.637 121.848 78.0227 121.397 77.7044L25.6798 10.1676C24.9646 9.66302 23.963 10.2335 24.0656 11.0871L26.9921 35.4475C27.0249 35.7208 27.1749 35.967 27.4055 36.1263L79.6047 72.1928L90.6719 79.4778L109.553 93.3024C110.005 93.6328 110.652 93.5381 110.99 93.0923L121.61 79.0768Z" fill="black"/>
<path d="M121.61 79.0768C121.943 78.637 121.848 78.0227 121.397 77.7044L25.6798 10.1676C24.9646 9.66302 23.963 10.2335 24.0656 11.0871L26.9921 35.4475C27.0249 35.7208 27.1749 35.967 27.4055 36.1263L79.6047 72.1928L90.6719 79.4778L109.553 93.3024C110.005 93.6328 110.652 93.5381 110.99 93.0923L121.61 79.0768Z" fill="black"/>
<path d="M175.134 22.6771C176.059 21.9912 175.255 20.538 174.171 20.9381L95.0052 50.179C94.2573 50.4552 94.1306 51.4539 94.7839 51.9225L114.505 66.0658C114.864 66.3238 115.348 66.3193 115.697 66.0549L129.328 55.7201L145.95 44.1911L156.768 36.2942L175.134 22.6771Z" fill="black"/>
<path d="M175.134 22.6771C176.059 21.9912 175.255 20.538 174.171 20.9381L95.0052 50.179C94.2573 50.4552 94.1306 51.4539 94.7839 51.9225L114.505 66.0658C114.864 66.3238 115.348 66.3193 115.697 66.0549L129.328 55.7201L145.95 44.1911L156.768 36.2942L175.134 22.6771Z" fill="black"/>
<path d="M100.189 179.64C99.3868 180.532 100.618 181.812 101.58 181.087L175.016 125.722C175.598 125.284 175.505 124.395 174.843 124.059L160.757 116.911C160.352 116.706 159.862 116.786 159.557 117.107L145.07 132.357L118.726 159.021L100.189 179.64Z" fill="black"/>
<path d="M100.189 179.64C99.3868 180.532 100.618 181.812 101.58 181.087L175.016 125.722C175.598 125.284 175.505 124.395 174.843 124.059L160.757 116.911C160.352 116.706 159.862 116.786 159.557 117.107L145.07 132.357L118.726 159.021L100.189 179.64Z" fill="black"/>
<path d="M63.6311 51.5149C63.0775 51.5067 62.6207 51.9498 62.612 52.5033L61.4355 127.831C61.4214 128.735 62.5185 129.187 63.1505 128.538L79.0866 112.176C79.2654 111.992 79.3674 111.748 79.3715 111.492L79.9289 77.2851L79.6822 68.3143L80.2878 52.7822C80.3096 52.2226 79.8676 51.7561 79.3076 51.7477L63.6311 51.5149Z" fill="black"/>
<path d="M63.6311 51.5149C63.0775 51.5067 62.6207 51.9498 62.612 52.5033L61.4355 127.831C61.4214 128.735 62.5185 129.187 63.1505 128.538L79.0866 112.176C79.2654 111.992 79.3674 111.748 79.3715 111.492L79.9289 77.2851L79.6822 68.3143L80.2878 52.7822C80.3096 52.2226 79.8676 51.7561 79.3076 51.7477L63.6311 51.5149Z" fill="black"/>
<path d="M62.847 52.1404C63.3987 52.1483 63.8402 52.6016 63.8336 53.1534L62.9308 127.784C62.9189 128.766 61.6479 129.143 61.1007 128.328L50.3807 112.357C50.2677 112.189 50.2085 111.99 50.2109 111.787L50.6088 77.4919L50.9997 68.5307L50.9226 52.9874C50.9198 52.428 51.3765 51.9755 51.9359 51.9836L62.847 52.1404Z" fill="#FF2D07"/>
<path d="M62.847 52.1404C63.3987 52.1483 63.8402 52.6016 63.8336 53.1534L62.9308 127.784C62.9189 128.766 61.6479 129.143 61.1007 128.328L50.3807 112.357C50.2677 112.189 50.2085 111.99 50.2109 111.787L50.6088 77.4919L50.9997 68.5307L50.9226 52.9874C50.9198 52.428 51.3765 51.9755 51.9359 51.9836L62.847 52.1404Z" fill="#9800FF"/>
<path d="M75.8141 189.462C76.2312 189.342 76.5239 188.967 76.5387 188.534L78.0453 144.392C78.0727 143.589 77.1896 143.084 76.5108 143.515L60.458 153.699C60.1671 153.883 59.9915 154.205 59.9932 154.549L60.0218 160.495L60.0941 175.495L59.9979 192.666C59.9942 193.333 60.6316 193.816 61.2727 193.632L75.8141 189.462Z" fill="#FF2D07"/>
<path d="M75.8141 189.462C76.2312 189.342 76.5239 188.967 76.5387 188.534L78.0453 144.392C78.0727 143.589 77.1896 143.084 76.5108 143.515L60.458 153.699C60.1671 153.883 59.9915 154.205 59.9932 154.549L60.0218 160.495L60.0941 175.495L59.9979 192.666C59.9942 193.333 60.6316 193.816 61.2727 193.632L75.8141 189.462Z" fill="#9800FF"/>
<path d="M128.385 141.24C127.966 140.812 127.267 140.845 126.891 141.311L117.395 153.069L108.045 163.813L85.5689 189.192C84.86 189.993 85.7339 191.197 86.7156 190.772L96.8827 186.373C97.0155 186.316 97.1343 186.23 97.2308 186.123L118.774 162.072L124.211 156.014L132.537 146.825C132.892 146.433 132.881 145.833 132.511 145.456L128.385 141.24Z" fill="#FF2D07"/>
<path d="M128.385 141.24C127.966 140.812 127.267 140.845 126.891 141.311L117.395 153.069L108.045 163.813L85.5689 189.192C84.86 189.993 85.7339 191.197 86.7156 190.772L96.8827 186.373C97.0155 186.316 97.1343 186.23 97.2308 186.123L118.774 162.072L124.211 156.014L132.537 146.825C132.892 146.433 132.881 145.833 132.511 145.456L128.385 141.24Z" fill="#9800FF"/>
<path d="M147.72 126.942C147.319 126.455 146.571 126.457 146.172 126.946L121.812 156.794L86.4599 189.837C85.7972 190.457 86.2359 191.567 87.1434 191.567L98.9848 191.567C99.2403 191.567 99.486 191.469 99.6718 191.294L117.261 174.703L129.817 162.839L149.79 143.899C149.878 143.815 149.95 143.716 150.003 143.606L153.941 135.401C154.11 135.051 154.059 134.634 153.812 134.334L147.72 126.942Z" fill="#FF2D07"/>
<path d="M147.72 126.942C147.319 126.455 146.571 126.457 146.172 126.946L121.812 156.794L86.4599 189.837C85.7972 190.457 86.2359 191.567 87.1434 191.567L98.9848 191.567C99.2403 191.567 99.486 191.469 99.6718 191.294L117.261 174.703L129.817 162.839L149.79 143.899C149.878 143.815 149.95 143.716 150.003 143.606L153.941 135.401C154.11 135.051 154.059 134.634 153.812 134.334L147.72 126.942Z" fill="#9800FF"/>
<path d="M149.995 114.293C149.565 113.949 148.937 114.018 148.592 114.446L118.056 152.261C117.563 152.871 117.933 153.784 118.711 153.88L124.69 154.621C124.989 154.658 125.289 154.558 125.506 154.35L147.202 133.562C147.242 133.523 147.279 133.481 147.313 133.435L150.749 128.806L157.113 121.29C157.477 120.86 157.414 120.215 156.974 119.863L149.995 114.293Z" fill="#FF2D07"/>
<path d="M149.995 114.293C149.565 113.949 148.937 114.018 148.592 114.446L118.056 152.261C117.563 152.871 117.933 153.784 118.711 153.88L124.69 154.621C124.989 154.658 125.289 154.558 125.506 154.35L147.202 133.562C147.242 133.523 147.279 133.481 147.313 133.435L150.749 128.806L157.113 121.29C157.477 120.86 157.414 120.215 156.974 119.863L149.995 114.293Z" fill="#9800FF"/>
<path d="M149.614 129.877C149.275 130.27 148.692 130.339 148.272 130.035L123.38 112.056C122.948 111.745 122.837 111.149 123.127 110.702L129.235 101.282C129.559 100.782 130.247 100.674 130.708 101.052L155.63 121.463C155.75 121.562 155.781 121.733 155.703 121.868L155.408 122.378C155.248 122.654 155.624 122.921 155.832 122.681L149.614 129.877Z" fill="#FF2D07"/>
<path d="M149.614 129.877C149.275 130.27 148.692 130.339 148.272 130.035L123.38 112.056C122.948 111.745 122.837 111.149 123.127 110.702L129.235 101.282C129.559 100.782 130.247 100.674 130.708 101.052L155.63 121.463C155.75 121.562 155.781 121.733 155.703 121.868L155.408 122.378C155.248 122.654 155.624 122.921 155.832 122.681L149.614 129.877Z" fill="#9800FF"/>
<path d="M120.533 102.056C120.908 102.433 120.924 103.037 120.569 103.432L48.7101 183.469C48.1063 184.141 46.9916 183.73 46.9675 182.826L46.6958 172.638L47.2972 156.218C47.3057 155.985 47.3953 155.762 47.5505 155.588L82.0605 116.911L91.3924 107.471L107.005 89.976C107.388 89.547 108.052 89.5287 108.458 89.9361L120.533 102.056Z" fill="#FF2D07"/>
<path d="M120.533 102.056C120.908 102.433 120.924 103.037 120.569 103.432L48.7101 183.469C48.1063 184.141 46.9916 183.73 46.9675 182.826L46.6958 172.638L47.2972 156.218C47.3057 155.985 47.3953 155.762 47.5505 155.588L82.0605 116.911L91.3924 107.471L107.005 89.976C107.388 89.547 108.052 89.5287 108.458 89.9361L120.533 102.056Z" fill="#9800FF"/>
<path d="M59.5307 68.6597C59.2109 69.1082 58.5882 69.2142 58.1381 68.8968L22.2119 43.5718C22.1443 43.5241 22.0828 43.4682 22.0289 43.4054L6.36002 25.1249C5.7079 24.3641 6.45821 23.2246 7.41654 23.5203L26.4062 29.3803C26.5491 29.4243 26.6802 29.4998 26.7899 29.6012L46.2389 47.5606L52.7244 52.4248L64.2429 60.2987C64.7047 60.6144 64.8171 61.2471 64.4923 61.7026L59.5307 68.6597Z" fill="#FF2D07"/>
<path d="M59.5307 68.6597C59.2109 69.1082 58.5882 69.2142 58.1381 68.8968L22.2119 43.5718C22.1443 43.5241 22.0828 43.4682 22.0289 43.4054L6.36002 25.1249C5.7079 24.3641 6.45821 23.2246 7.41654 23.5203L26.4062 29.3803C26.5491 29.4243 26.6802 29.4998 26.7899 29.6012L46.2389 47.5606L52.7244 52.4248L64.2429 60.2987C64.7047 60.6144 64.8171 61.2471 64.4923 61.7026L59.5307 68.6597Z" fill="#9800FF"/>
<path d="M6.71584 25.1264C6.34455 25.049 6.04867 24.7683 5.95174 24.4017L0.570417 4.04831C0.369772 3.28942 1.0814 2.60714 1.83156 2.83918L24.4191 9.82592C24.8124 9.94759 25.0915 10.2976 25.1222 10.7079L26.4582 28.5084L26.2791 33.3466L26.3999 30.0849C26.4179 29.5973 26.0812 29.1673 25.6032 29.0675L6.71584 25.1264Z" fill="#FF2D07"/>
<path d="M6.71584 25.1264C6.34455 25.049 6.04867 24.7683 5.95174 24.4017L0.570417 4.04831C0.369772 3.28942 1.0814 2.60714 1.83156 2.83918L24.4191 9.82592C24.8124 9.94759 25.0915 10.2976 25.1222 10.7079L26.4582 28.5084L26.2791 33.3466L26.3999 30.0849C26.4179 29.5973 26.0812 29.1673 25.6032 29.0675L6.71584 25.1264Z" fill="#9800FF"/>
<path d="M133.715 86.4937C134.179 86.8337 134.248 87.4852 133.865 87.9169L61.7152 169.208C61.0697 169.935 59.8481 169.445 59.9349 168.494L61.9065 146.898C61.9252 146.694 62.0092 146.5 62.1468 146.343L121.475 78.7055C121.826 78.3053 122.436 78.2375 122.865 78.5512L133.715 86.4937Z" fill="black"/>
<path d="M133.715 86.4937C134.179 86.8337 134.248 87.4852 133.865 87.9169L61.7152 169.208C61.0697 169.935 59.8481 169.445 59.9349 168.494L61.9065 146.898C61.9252 146.694 62.0092 146.5 62.1468 146.343L121.475 78.7055C121.826 78.3053 122.436 78.2375 122.865 78.5512L133.715 86.4937Z" fill="black"/>
<path d="M175.61 124.446C175.61 125.173 174.857 125.662 174.194 125.365L165.892 121.638C165.703 121.552 165.491 121.529 165.286 121.57L155.8 123.478C155.543 123.53 155.277 123.479 155.058 123.336L147.149 118.174L128.5 104.173C128.05 103.836 127.971 103.193 128.325 102.752L138.24 90.3802C138.572 89.9662 139.168 89.8799 139.599 90.1833L175.189 115.204C175.453 115.39 175.61 115.692 175.61 116.016L175.61 124.446Z" fill="black"/>
<path d="M175.61 124.446C175.61 125.173 174.857 125.662 174.194 125.365L165.892 121.638C165.703 121.552 165.491 121.529 165.286 121.57L155.8 123.478C155.543 123.53 155.277 123.479 155.058 123.336L147.149 118.174L128.5 104.173C128.05 103.836 127.971 103.193 128.325 102.752L138.24 90.3802C138.572 89.9662 139.168 89.8799 139.599 90.1833L175.189 115.204C175.453 115.39 175.61 115.692 175.61 116.016L175.61 124.446Z" fill="black"/>
<path d="M121.61 79.0768C121.943 78.637 121.848 78.0227 121.397 77.7044L25.6798 10.1676C24.9646 9.66302 23.963 10.2335 24.0656 11.0871L26.9921 35.4475C27.0249 35.7208 27.1749 35.967 27.4055 36.1263L79.6047 72.1928L90.6719 79.4778L109.553 93.3024C110.005 93.6328 110.652 93.5381 110.99 93.0923L121.61 79.0768Z" fill="black"/>
<path d="M121.61 79.0768C121.943 78.637 121.848 78.0227 121.397 77.7044L25.6798 10.1676C24.9646 9.66302 23.963 10.2335 24.0656 11.0871L26.9921 35.4475C27.0249 35.7208 27.1749 35.967 27.4055 36.1263L79.6047 72.1928L90.6719 79.4778L109.553 93.3024C110.005 93.6328 110.652 93.5381 110.99 93.0923L121.61 79.0768Z" fill="black"/>
<path d="M175.134 22.6771C176.059 21.9912 175.255 20.538 174.171 20.9381L95.0052 50.179C94.2573 50.4552 94.1306 51.4539 94.7839 51.9225L114.505 66.0658C114.864 66.3238 115.348 66.3193 115.697 66.0549L129.328 55.7201L145.95 44.1911L156.768 36.2942L175.134 22.6771Z" fill="black"/>
<path d="M175.134 22.6771C176.059 21.9912 175.255 20.538 174.171 20.9381L95.0052 50.179C94.2573 50.4552 94.1306 51.4539 94.7839 51.9225L114.505 66.0658C114.864 66.3238 115.348 66.3193 115.697 66.0549L129.328 55.7201L145.95 44.1911L156.768 36.2942L175.134 22.6771Z" fill="black"/>
<path d="M100.189 179.64C99.3868 180.532 100.618 181.812 101.58 181.087L175.016 125.722C175.598 125.284 175.505 124.395 174.843 124.059L160.757 116.911C160.352 116.706 159.862 116.786 159.557 117.107L145.07 132.357L118.726 159.021L100.189 179.64Z" fill="black"/>
<path d="M100.189 179.64C99.3868 180.532 100.618 181.812 101.58 181.087L175.016 125.722C175.598 125.284 175.505 124.395 174.843 124.059L160.757 116.911C160.352 116.706 159.862 116.786 159.557 117.107L145.07 132.357L118.726 159.021L100.189 179.64Z" fill="black"/>
</svg>
