<svg width="137" height="132" viewBox="0 0 137 132" fill="none" xmlns="http://www.w3.org/2000/svg">
<path d="M46.8197 33.6187C46.2654 33.6114 45.8066 34.0563 45.7969 34.6105L44.9541 82.7405C44.9388 83.6162 45.9771 84.077 46.6261 83.4826L57.7377 73.3054C57.9421 73.1182 58.0608 72.8557 58.0658 72.58L58.4704 50.4311L58.29 44.5774L58.7174 34.7972C58.7419 34.2372 58.3014 33.7709 57.741 33.7634L46.8197 33.6187Z" fill="white"/>
<path d="M45.7023 34.0418C46.2548 34.0489 46.6967 34.5026 46.6892 35.055L46.0447 82.5755C46.0318 83.5288 44.8189 83.9253 44.2457 83.1636L36.9314 73.4428C36.7983 73.266 36.7277 73.05 36.7306 72.8287L37.0199 50.5881L37.3058 44.7405L37.2514 34.9522C37.2483 34.3927 37.7049 33.9393 38.2645 33.9465L45.7023 34.0418Z" fill="#9800FF"/>
<path d="M55.2469 123.685C55.6769 123.575 55.9838 123.195 56.0007 122.752L57.0712 94.7737C57.1012 93.9921 56.2626 93.4825 55.5812 93.8681L44.3975 100.197C44.0813 100.376 43.8864 100.712 43.8883 101.075L43.9081 104.729L43.961 114.517L43.8933 125.299C43.8892 125.953 44.5043 126.433 45.1387 126.271L55.2469 123.685Z" fill="#9800FF"/>
<path d="M94.16 92.3887C93.7222 91.9897 92.9861 92.0277 92.5857 92.4699L85.8743 99.8825L79.0344 106.894L63.536 122.505C62.7837 123.263 63.6842 124.388 64.7224 123.987L70.7992 121.642C70.9424 121.587 71.0707 121.504 71.1751 121.4L86.8828 105.758L90.8599 101.804L96.7387 96.0173C97.1173 95.6445 97.1105 95.0778 96.7232 94.7248L94.16 92.3887Z" fill="#9800FF"/>
<path d="M108.309 83.1032C107.886 82.6459 107.098 82.65 106.676 83.1117L89.1082 102.313L63.8451 123.377C63.1447 123.961 63.6015 125.004 64.5577 125.004L72.2795 125.004C72.55 125.004 72.8107 124.911 73.0079 124.745L85.7791 113.999L94.9639 106.258L109.529 93.9368C109.623 93.8572 109.7 93.763 109.756 93.6589L112.521 88.5207C112.699 88.1901 112.647 87.7986 112.386 87.517L108.309 83.1032Z" fill="#9800FF"/>
<path d="M109.965 74.7533C109.516 74.4335 108.855 74.5046 108.485 74.9124L86.7232 98.9524C86.2006 99.5296 86.5718 100.383 87.3847 100.472L91.0565 100.878C91.373 100.913 91.6933 100.817 91.9271 100.617L107.657 87.1722C107.701 87.1345 107.742 87.0934 107.778 87.0495L110.274 84.0502L114.706 79.3808C115.095 78.9716 115.036 78.3634 114.577 78.0363L109.965 74.7533Z" fill="#9800FF"/>
<path d="M109.585 84.6041C109.249 84.9515 108.717 85.0164 108.317 84.7588L90.5649 73.3209C90.0889 73.0142 89.9736 72.3684 90.3119 71.903L94.3827 66.3022C94.7126 65.8484 95.3456 65.7437 95.7912 66.0692L113.832 79.2499C113.925 79.3178 113.948 79.4469 113.884 79.545L113.703 79.8252C113.579 80.0164 113.834 80.2174 113.993 80.0534L109.585 84.6041Z" fill="#9800FF"/>
<path d="M87.9606 66.4044C88.3543 66.7569 88.3677 67.3259 87.9912 67.7L36.1735 119.184C35.5346 119.819 34.3641 119.441 34.3387 118.593L34.1611 112.652L34.5967 102.045C34.6057 101.824 34.7016 101.612 34.8675 101.446L60.0307 76.2886L66.8571 70.1286L78.0455 58.9443C78.4515 58.5385 79.1524 58.5179 79.5784 58.8993L87.9606 66.4044Z" fill="#9800FF"/>
<path d="M43.7446 44.5535C43.4005 44.984 42.7457 45.0952 42.2799 44.8023L16.2734 28.449C16.206 28.4065 16.1447 28.3568 16.0909 28.3008L5.43255 17.2085C4.74863 16.4967 5.57042 15.3881 6.57664 15.6651L19.2564 19.1555C19.3993 19.1948 19.53 19.2619 19.6395 19.3521L33.8223 31.0348L38.5665 34.2089L46.7371 39.1912C47.2151 39.4827 47.3205 40.0808 46.9708 40.5182L43.7446 44.5535Z" fill="#9100FF"/>
<path d="M5.08989 16.4288C4.71075 16.3582 4.40048 16.079 4.2911 15.71L0.583163 3.19975C0.361736 2.45268 1.03694 1.76898 1.79075 1.97698L17.648 6.35238C18.0623 6.4667 18.3642 6.82838 18.4 7.25312L19.3549 18.6027L19.2239 21.7599L19.2985 19.9621C19.3194 19.4588 18.9591 19.0104 18.4591 18.9173L5.08989 16.4288Z" fill="#9800FF"/>
<path d="M97.5525 56.268C98.0349 56.583 98.0952 57.1988 97.684 57.612L45.7833 109.775C45.0982 110.464 43.8372 110.031 43.9285 109.139L45.2776 95.9571C45.2979 95.7583 45.3907 95.5679 45.5422 95.4138L88.6519 51.5725C89.0272 51.1908 89.6672 51.1188 90.1105 51.4083L97.5525 56.268Z" fill="white"/>
<path d="M128.461 80.7063C128.461 81.4224 127.725 81.9245 127.063 81.6596L121.403 79.3928C121.231 79.3237 121.041 79.3048 120.855 79.3381L114.039 80.5611C113.805 80.6031 113.566 80.5616 113.364 80.4439L107.642 77.1126L94.3356 68.2017C93.8394 67.8694 93.7619 67.1706 94.1709 66.7155L100.981 59.1365C101.313 58.7669 101.859 58.6847 102.27 58.9425L128.009 75.0841C128.291 75.261 128.461 75.5699 128.461 75.9057L128.461 80.7063Z" fill="white"/>
<path d="M88.7536 51.8411C89.1104 51.421 89.0208 50.8425 88.5533 50.5483L19.4042 7.02494C18.6562 6.55413 17.5881 7.12113 17.6972 7.93112L19.7288 23.0165C19.7627 23.2681 19.9144 23.4922 20.1484 23.6364L58.2308 47.1083L66.3265 51.862L79.8879 60.7194C80.3556 61.0249 81.0362 60.9261 81.398 60.5003L88.7536 51.8411Z" fill="white"/>
<path d="M125.947 16.23C126.904 15.5966 126.097 14.0948 124.994 14.4582L70.1425 32.531C69.3589 32.7892 69.2643 33.8352 69.983 34.295L83.6271 43.024C83.9766 43.2476 84.4188 43.2485 84.7473 43.0263L94.6051 36.3592L106.764 28.8361L114.678 23.6831L125.947 16.23Z" fill="white"/>
<path d="M75.7936 114.737C74.9635 115.56 76.258 116.853 77.2469 116.188L127.594 82.3288C128.205 81.918 128.068 81.0294 127.343 80.7014L117.781 76.3726C117.37 76.1868 116.895 76.2505 116.596 76.5312L106.12 86.3674L86.8494 103.767L75.7936 114.737Z" fill="white"/>
</svg>
